<svg xmlns="http://www.w3.org/2000/svg" width="400" height="400" viewBox="0 0 400 400" role="img" aria-labelledby="title desc">
  <title id="title">Security guard silhouette</title>
  <desc id="desc">Minimal placeholder illustration representing a security guard profile.</desc>
  <defs>
    <radialGradient id="glow" cx="50%" cy="30%" r="65%">
      <stop offset="0%" stop-color="#38bdf8" stop-opacity="0.45" />
      <stop offset="65%" stop-color="#0f172a" stop-opacity="0.05" />
      <stop offset="100%" stop-color="#0f172a" stop-opacity="0" />
    </radialGradient>
    <linearGradient id="badge" x1="0%" y1="0%" x2="100%" y2="100%">
      <stop offset="0%" stop-color="#38bdf8" />
      <stop offset="100%" stop-color="#0ea5e9" />
    </linearGradient>
  </defs>
  <rect width="400" height="400" fill="#0f172a" />
  <circle cx="200" cy="160" r="120" fill="url(#glow)" />
  <path d="M200 90c36 0 65 29 65 65s-29 65-65 65-65-29-65-65 29-65 65-65z" fill="#1e293b" />
  <path d="M120 300c0-52 36-88 80-88s80 36 80 88v34H120z" fill="#1e293b" />
  <path d="M168 308l32-72 32 72z" fill="url(#badge)" opacity="0.9" />
  <path d="M164 188c10 14 24 22 36 22s26-8 36-22c2-3-1-7-4-5-9 6-20 10-32 10s-23-4-32-10c-3-2-6 2-4 5z" fill="#0ea5e9" opacity="0.55" />
</svg>